:FULLY-SPECIFIED
:FORCE-ALL-JOINTS-BE-3DOF
:DEGREES
306
root -0.179945 15.3966 -36.1334 10.1773 55.3954 3.54953
lfemur -20.0667 19.2846 -13.3833
ltibia 63.983 -0 0
lfoot -26.8325 28.4723 0.00949296
ltoes 3.0241 -0 0
rfemur -36.7967 -11.0753 9.8216
rtibia 48.6037 -0 0
rfoot -4.81371 -7.91653 2.49719
rtoes -10.6366 0 0
lowerback 13.8017 1.53249 -1.12347
upperback -2.78213 2.18203 2.48401
thorax -10.7459 1.18468 2.86202
lowerneck -5.7342 3.67299 0.433329
upperneck 6.17939 5.30493 -4.91374
head 3.48069 2.45745 -1.27671
lclavicle -3.02249e-14 -1.59403e-14 -1.59306e-30
lhumerus -28.0581 -29.6983 89.3049
lradius 105.56 -0 0
lwrist 38.6503 0 0
lhand -20.212 47.9891 0.107415
lfingers 7.12502 -0 0
lthumb 6.13493 77.8726 0.102938
rclavicle -3.02249e-14 -1.59403e-14 -1.59306e-30
rhumerus -7.98834 35.2568 -77.1027
rradius 80.6504 -0 0
rwrist -24.5258 0 0
rhand 21.6904 -24.5267 1.52189
rfingers 7.12502 -0 0
rthumb 45.2364 -40.6074 3.75319
307
root 0.0148848 15.3735 -36.0599 10.6815 57.7853 4.65258
lfemur -18.617 18.0487 -13.3704
ltibia 62.8478 -0 0
lfoot -26.9473 28.4208 0.00970043
ltoes 2.03249 -0 0
rfemur -37.288 -10.2087 9.15418
rtibia 47.6065 -0 0
rfoot -3.15303 -6.9648 2.55272
rtoes -8.83773 0 0
lowerback 13.8712 1.50385 -1.68088
upperback -2.69148 2.03695 2.42566
thorax -10.6898 1.14643 3.14761
lowerneck -5.77321 3.09739 0.0439897
upperneck 6.27674 4.54169 -4.53865
head 3.49854 2.08142 -1.13559
lclavicle -2.82007e-14 -1.54505e-14 -1.62787e-30
lhumerus -29.3447 -30.1923 91.1698
lradius 104.966 -0 0
lwrist 39.4991 0 0
lhand -20.3486 47.4992 0.109765
lfingers 7.12502 -0 0
lthumb 6.00307 77.3862 0.10519
rclavicle -2.82007e-14 -1.54505e-14 -1.62787e-30
rhumerus -4.62953 34.1459 -75.8621
rradius 78.7323 -0 0
rwrist -22.7296 0 0
rhand 19.767 -25.0278 1.55578
rfingers 7.12502 -0 0
rthumb 43.4406 -41.9396 3.83719
308
root 0.211117 15.3502 -35.9858 11.3193 60.1863 5.88636
lfemur -17.1671 16.8041 -13.3906
ltibia 61.7044 -0 0
lfoot -27.0629 28.369 0.00980517
ltoes 1.03372 -0 0
rfemur -37.7919 -9.34161 8.47611
rtibia 46.6021 -0 0
rfoot -1.47963 -6.00495 2.58077
rtoes -7.02588 0 0
lowerback 13.9414 1.47569 -2.24235
upperback -2.60003 1.89093 2.36666
thorax -10.6335 1.10761 3.43522
lowerneck -5.80853 2.51738 -0.347565
upperneck 6.36963 3.77233 -4.16253
head 3.51558 1.70265 -0.993607
lclavicle -2.61619e-14 -1.49573e-14 -1.64544e-30
lhumerus -30.6651 -30.6528 93.0699
lradius 104.367 -0 0
lwrist 40.3541 0 0
lhand -20.4861 47.0057 0.110951
lfingers 7.12502 -0 0
lthumb 5.87025 76.8964 0.106327
rclavicle -2.61619e-14 -1.49573e-14 -1.64544e-30
rhumerus -1.32076 32.9691 -74.7095
rradius 76.8005 -0 0
rwrist -20.9204 0 0
rhand 17.8295 -25.5334 1.5729
rfingers 7.12502 -0 0
rthumb 41.6303 -43.2835 3.87963
309
root 0.407816 15.3268 -35.9116 12.1221 62.5849 7.27999
lfemur -15.7225 15.5573 -13.4435
ltibia 60.5583 -0 0
lfoot -27.1788 28.317 0.00980517
ltoes 0.0325766 -0 0
rfemur -38.3062 -8.47845 7.79032
rtibia 45.5954 -0 0
rfoot 0.198026 -5.04238 2.58077
rtoes -5.20972 0 0
lowerback 14.0121 1.44816 -2.80517
upperback -2.50823 1.74465 2.30729
thorax -10.5772 1.06842 3.72347
lowerneck -5.83993 1.93577 -0.73954
upperneck 6.4576 3.00054 -3.78708
head 3.53171 1.32294 -0.851425
lclavicle -2.41182e-14 -1.44628e-14 -1.64544e-30
lhumerus -32.0119 -31.076 94.9953
lradius 103.767 -0 0
lwrist 41.2111 0 0
lhand -20.6241 46.511 0.110951
lfingers 7.12502 -0 0
lthumb 5.73711 76.4054 0.106327
rclavicle -2.41182e-14 -1.44628e-14 -1.64544e-30
rhumerus 1.92344 31.7365 -73.6514
rradius 74.8639 -0 0
rwrist -19.1069 0 0
rhand 15.8872 -26.0406 1.5729
rfingers 7.12502 -0 0
rthumb 39.8152 -44.6314 3.87963
310
root 0.604045 15.3034 -35.8376 13.131 64.9669 8.87224
lfemur -14.2884 14.3152 -13.5282
ltibia 59.4149 -0 0
lfoot -27.2944 28.2652 0.00970043
ltoes -0.966187 0 0
rfemur -38.8285 -7.62349 7.09986
rtibia 44.591 -0 0
rfoot 1.87143 -4.08253 2.55272
rtoes -3.39787 0 0
lowerback 14.0829 1.42138 -3.36669
upperback -2.41649 1.59881 2.24783
thorax -10.5213 1.02905 4.011
lowerneck -5.86729 1.35534 -1.13015
upperneck 6.54025 2.23004 -3.41393
head 3.54686 0.944099 -0.709706
lclavicle -2.20794e-14 -1.39696e-14 -1.62787e-30
lhumerus -33.3771 -31.459 96.9354
lradius 103.168 -0 0
lwrist 42.0661 0 0
lhand -20.7616 46.0175 0.109765
lfingers 7.12502 -0 0
lthumb 5.60429 75.9156 0.10519
rclavicle -2.20794e-14 -1.39696e-14 -1.62787e-30
rhumerus 5.0906 30.4589 -72.692
rradius 72.9321 -0 0
rwrist -17.2978 0 0
rhand 13.9497 -26.5462 1.55578
rfingers 7.12502 -0 0
rthumb 38.0049 -45.9753 3.83719
311
root 0.798868 15.2802 -35.7641 14.4 67.3177 10.7152
lfemur -12.8702 13.0844 -13.6435
ltibia 58.2797 -0 0
lfoot -27.4092 28.2137 0.00949296
ltoes -1.9578 0 0
rfemur -39.3563 -6.78091 6.40788
rtibia 43.5938 -0 0
rfoot 3.53211 -3.1308 2.49719
rtoes -1.59899 0 0
lowerback 14.1535 1.39549 -3.92421
upperback -2.32527 1.45411 2.18857
thorax -10.466 0.989674 4.29642
lowerneck -5.89052 0.778888 -1.51762
upperneck 6.61731 1.46453 -3.04471
head 3.56098 0.567906 -0.569104
lclavicle -2.00552e-14 -1.34798e-14 -1.59306e-30
lhumerus -34.7521 -31.7999 98.8792
lradius 102.573 -0 0
lwrist 42.9149 0 0
lhand -20.8982 45.5276 0.107415
lfingers 7.12502 -0 0
lthumb 5.47243 75.4292 0.102938
rclavicle -2.00552e-14 -1.34798e-14 -1.59306e-30
rhumerus 8.17001 29.1478 -71.8331
rradius 71.014 -0 0
rwrist -15.5016 0 0
rhand 12.0263 -27.0473 1.52189
rfingers 7.12502 -0 0
rthumb 36.2091 -47.3075 3.75319
312
root 0.991348 15.2573 -35.6915 16.0023 69.6211 12.8799
lfemur -11.4731 11.8714 -13.7874
ltibia 57.1581 -0 0
lfoot -27.5226 28.1628 0.00918672
ltoes -2.9375 0 0
rfemur -39.8869 -5.95475 5.71769
rtibia 42.6086 -0 0
rfoot 5.17162 -2.19251 2.41529
rtoes 0.178277 -0 0
lowerback 14.2235 1.37058 -4.47506
upperback -2.23501 1.31125 2.12981
thorax -10.4115 0.950505 4.57838
lowerneck -5.90965 0.209224 -1.90017
upperneck 6.68858 0.707746 -2.68103
head 3.57401 0.196219 -0.430296
lclavicle -1.80554e-14 -1.2996e-14 -1.54167e-30
lhumerus -36.1279 -32.0972 100.815
lradius 101.986 -0 0
lwrist 43.7536 0 0
lhand -21.0331 45.0435 0.103946
lfingers 7.12502 -0 0
lthumb 5.34218 74.9487 0.0996139
rclavicle -1.80554e-14 -1.2996e-14 -1.54167e-30
rhumerus 11.1524 27.8154 -71.0744
rradius 69.119 -0 0
rwrist -13.7269 0 0
rhand 10.1264 -27.541 1.47191
rfingers 7.12502 -0 0
rthumb 34.4376 -48.6203 3.62936
313
root 1.18055 15.2347 -35.6202 18.0375 71.8596 15.464
lfemur -10.1026 10.6828 -13.9575
ltibia 56.0557 -0 0
lfoot -27.634 28.1128 0.0087876
ltoes -3.90053 0 0
rfemur -40.4175 -5.14893 5.03273
rtibia 41.6402 -0 0
rfoot 6.78159 -1.27292 2.3087
rtoes 1.92528 -0 0
lowerback 14.2924 1.34675 -5.01656
upperback -2.14614 1.17091 2.07182
thorax -10.3581 0.911742 4.85549
lowerneck -5.92475 -0.350854 -2.27603
upperneck 6.75395 -0.0365776 -2.32448
head 3.58595 -0.169168 -0.293934
lclavicle -1.60895e-14 -1.25204e-14 -1.4747e-30
lhumerus -37.4953 -32.3508 102.732
lradius 101.409 -0 0
lwrist 44.5779 0 0
lhand -21.1657 44.5677 0.0994258
lfingers 7.12502 -0 0
lthumb 5.21418 74.4764 0.095282
rclavicle -1.60895e-14 -1.25204e-14 -1.4747e-30
rhumerus 14.0297 26.4739 -70.414
rradius 67.2562 -0 0
rwrist -11.9825 0 0
rhand 8.2594 -28.0244 1.40687
rfingers 7.12502 -0 0
rthumb 32.6997 -49.9062 3.46826
314
root 1.36554 15.2126 -35.5504 20.644 74.0129 18.604
lfemur -8.76395 9.52486 -14.151
ltibia 54.9778 -0 0
lfoot -27.743 28.064 0.00830335
ltoes -4.84211 0 0
rfemur -40.945 -4.36725 4.35659
rtibia 40.6933 -0 0
rfoot 8.35374 -0.377127 2.17957
rtoes 3.63339 -0 0
lowerback 14.3601 1.32408 -5.54602
upperback -2.05912 1.03378 2.01492
thorax -10.3062 0.873594 5.12639
lowerneck -5.93596 -0.898544 -2.64341
upperneck 6.81339 -0.764706 -1.97667
head 3.59679 -0.526443 -0.160678
lclavicle -1.41675e-14 -1.20554e-14 -1.39345e-30
lhumerus -38.8447 -32.5611 104.617
lradius 100.844 -0 0
lwrist 45.3839 0 0
lhand -21.2953 44.1025 0.0939418
lfingers 7.12502 -0 0
lthumb 5.08905 74.0146 0.0900258
rclavicle -1.41675e-14 -1.20554e-14 -1.39345e-30
rhumerus 16.7947 25.1355 -69.8482
rradius 65.4349 -0 0
rwrist -10.2769 0 0
rhand 6.4346 -28.4948 1.32809
rfingers 7.12502 -0 0
rthumb 31.0047 -51.1579 3.27322
315
root 1.54537 15.1912 -35.4826 24.0149 76.0571 22.4908
lfemur -7.4629 8.40369 -14.3648
ltibia 53.9298 -0 0
lfoot -27.8489 28.0165 0.00774346
ltoes -5.75747 0 0
rfemur -41.4662 -3.61335 3.693
rtibia 39.7728 -0 0
rfoot 9.87986 0.489941 2.03056
rtoes 5.29395 -0 0
lowerback 14.4261 1.30264 -6.06076
upperback -1.9744 0.900552 1.95941
thorax -10.2558 0.836279 5.38967
lowerneck -5.94349 -1.43105 -3.00053
upperneck 6.86695 -1.4729 -1.63918
head 3.60652 -0.8739 -0.0311475
lclavicle -1.22989e-14 -1.16033e-14 -1.2995e-30
lhumerus -40.1664 -32.7294 106.459
lradius 100.295 -0 0
lwrist 46.1675 0 0
lhand -21.4213 43.6502 0.0876009
lfingers 7.12502 -0 0
lthumb 4.96747 73.5657 0.0839502
rclavicle -1.22989e-14 -1.16033e-14 -1.2995e-30
rhumerus 19.4404 23.8125 -69.3722
rradius 63.6643 -0 0
rwrist -8.61884 0 0
rhand 4.66134 -28.9494 1.23718
rfingers 7.12502 -0 0
rthumb 29.3617 -52.3685 3.04832
